<?xml version="1.0" standalone="no"?>
<!DOCTYPE svg PUBLIC "-//W3C//DTD SVG 20010904//EN"
 "http://www.w3.org/TR/2001/REC-SVG-20010904/DTD/svg10.dtd">
<svg version="1.0" xmlns="http://www.w3.org/2000/svg"
 width="1907.000000pt" height="1907.000000pt" viewBox="0 0 1907.000000 1907.000000"
 preserveAspectRatio="xMidYMid meet">
<metadata>
Created by potrace 1.14, written by Peter Selinger 2001-2017
</metadata>
<g transform="translate(0.000000,1907.000000) scale(0.100000,-0.100000)"
fill="#000000" stroke="none">
<path d="M1440 13417 c0 -35 0 -35 53 -42 295 -36 380 -81 457 -240 69 -142
64 -16 68 -1705 2 -1351 1 -1540 -13 -1660 -18 -149 -43 -224 -96 -293 -74
-97 -162 -139 -338 -163 -58 -7 -112 -14 -118 -14 -8 0 -13 -14 -13 -35 l0
-36 1303 4 c1447 3 1340 -2 1667 74 208 47 339 92 495 167 363 176 577 432
646 771 15 77 15 272 0 354 -52 274 -250 527 -546 699 -182 106 -467 189 -841
247 -56 8 -116 15 -134 15 -60 0 -26 8 80 20 241 26 552 106 701 180 273 137
430 341 469 609 43 290 -109 572 -413 769 -236 152 -592 246 -1117 293 -79 7
-524 13 -1217 16 l-1093 4 0 -34z m2083 -57 c229 -19 340 -61 448 -169 78 -79
138 -193 169 -321 57 -241 48 -614 -21 -836 -31 -100 -90 -212 -144 -272 -78
-87 -259 -161 -392 -162 -63 0 -73 -7 -73 -51 l0 -39 53 0 c122 0 287 -39 393
-93 275 -139 395 -480 381 -1082 -7 -323 -40 -502 -124 -675 -36 -75 -61 -110
-117 -166 -125 -126 -259 -175 -481 -176 -194 -1 -279 29 -331 117 -41 71 -54
141 -64 360 -5 110 -10 959 -10 1888 l0 1687 98 0 c53 0 150 -5 215 -10z"/>
<path d="M16924 13423 c-25 -115 -116 -343 -200 -503 -160 -303 -344 -510
-545 -615 -126 -65 -179 -75 -411 -75 l-198 0 0 -60 0 -60 190 0 189 0 4 -942
c4 -1026 2 -988 63 -1203 100 -356 337 -603 667 -699 305 -88 700 -85 919 8
l37 16 -16 38 -15 39 -50 -15 c-78 -22 -218 -13 -289 20 -137 63 -201 189
-245 488 -15 102 -18 240 -21 1183 l-4 1067 260 0 261 0 0 60 0 60 -260 0
-260 0 0 610 0 610 -35 0 c-30 0 -35 -4 -41 -27z"/>
<path d="M7230 12330 c-615 -76 -1075 -444 -1261 -1011 -67 -205 -84 -314 -84
-549 0 -174 4 -222 23 -319 87 -433 297 -768 617 -983 289 -194 616 -281 1000
-265 421 18 756 153 1022 410 128 124 211 236 288 392 243 489 243 1042 0
1530 -207 418 -586 695 -1065 780 -112 19 -429 28 -540 15z m411 -163 c108
-52 189 -168 228 -323 48 -194 61 -411 61 -1089 0 -536 -10 -794 -34 -948 -44
-272 -132 -403 -301 -453 -91 -26 -271 -17 -347 18 -141 65 -218 210 -259 493
-17 114 -24 1427 -10 1645 19 267 56 416 134 533 80 119 169 158 352 154 108
-2 126 -5 176 -30z"/>
<path d="M10685 12334 c-16 -2 -66 -9 -110 -15 -442 -57 -837 -316 -1061 -695
-84 -142 -152 -324 -196 -525 -19 -91 -22 -133 -22 -329 0 -255 12 -336 84
-552 170 -510 563 -864 1084 -977 275 -60 607 -51 881 23 465 126 842 492 993
966 118 372 116 732 -7 1100 -77 230 -186 406 -355 576 -217 216 -469 347
-780 405 -107 20 -432 34 -511 23z m366 -167 c31 -15 77 -49 102 -76 160 -171
194 -453 184 -1511 -3 -305 -11 -602 -17 -660 -34 -313 -113 -478 -263 -546
-54 -25 -76 -29 -178 -32 -188 -6 -285 35 -366 156 -96 144 -120 290 -135 841
-12 428 1 1163 23 1331 31 240 111 410 226 477 76 44 118 53 248 50 108 -2
126 -5 176 -30z"/>
<path d="M12760 11804 l0 -425 37 3 37 3 13 81 c44 288 219 498 494 595 118
42 210 50 551 47 l307 -3 -784 -1360 -785 -1360 0 -77 0 -78 1340 0 1340 0 0
460 0 460 -38 0 -39 0 -12 -66 c-56 -305 -215 -543 -434 -648 -158 -76 -176
-78 -649 -83 -230 -3 -418 -2 -418 0 0 3 342 610 760 1348 l760 1344 0 93 0
92 -1240 0 -1240 0 0 -426z"/>
<path d="M2541 6795 c-323 -90 -498 -439 -386 -771 57 -170 173 -290 340 -354
83 -32 257 -40 341 -15 88 25 164 70 225 131 l54 55 -25 19 c-46 36 -58 35
-111 -15 -211 -197 -566 -122 -694 147 -121 255 -24 569 210 679 168 79 357
53 485 -67 l51 -47 37 21 c20 11 38 25 40 31 9 28 -138 141 -226 174 -75 27
-262 34 -341 12z"/>
<path d="M6291 6794 c-234 -63 -401 -300 -401 -569 0 -272 168 -508 405 -570
76 -19 224 -19 300 0 180 47 322 192 381 390 25 83 25 277 0 360 -59 198 -201
343 -381 390 -74 19 -232 19 -304 -1z m250 -88 c81 -17 136 -45 191 -94 242
-218 192 -697 -86 -832 -127 -62 -275 -61 -402 0 -159 77 -256 278 -239 495
25 307 253 491 536 431z"/>
<path d="M8524 6786 c-230 -75 -374 -290 -374 -561 0 -212 90 -397 244 -499
131 -87 324 -112 481 -62 235 75 377 286 377 561 0 182 -52 317 -166 431 -113
112 -219 154 -391 153 -76 0 -117 -5 -171 -23z m262 -77 c169 -31 292 -151
339 -330 19 -69 19 -239 0 -308 -61 -231 -263 -368 -491 -332 -230 35 -374
223 -374 486 0 327 230 538 526 484z"/>
<path d="M9950 6794 c-200 -53 -352 -209 -405 -419 -19 -76 -19 -224 0 -300
44 -172 153 -310 297 -378 99 -47 166 -62 273 -60 120 2 227 35 321 102 112
79 105 58 102 287 l-3 199 -265 0 -265 0 0 -45 0 -45 213 -3 212 -2 0 -134 0
-134 -32 -28 c-51 -42 -151 -85 -229 -97 -235 -36 -458 117 -514 354 -71 301
100 579 382 621 133 19 282 -25 377 -112 l45 -42 36 27 c19 15 35 31 35 35 0
16 -100 97 -157 128 -33 17 -86 38 -118 47 -74 19 -231 19 -305 -1z"/>
<path d="M17455 6791 c-93 -26 -164 -69 -241 -146 -115 -114 -165 -241 -165
-420 0 -179 50 -305 165 -421 113 -113 237 -164 401 -164 158 0 261 40 369
143 l61 58 -45 28 -45 28 -41 -43 c-88 -90 -231 -135 -365 -114 -182 28 -326
160 -375 344 -18 67 -18 217 1 285 49 186 188 313 374 342 134 20 277 -25 365
-115 l42 -43 44 30 44 31 -61 56 c-113 103 -212 140 -373 139 -58 0 -118 -7
-155 -18z"/>
<path d="M18525 6796 c-71 -23 -121 -54 -167 -105 -100 -111 -96 -280 10 -372
50 -44 133 -80 288 -124 229 -65 294 -113 302 -224 10 -133 -73 -215 -239
-235 -120 -15 -266 33 -356 118 l-48 44 -35 -41 -34 -40 54 -49 c107 -96 223
-133 394 -126 69 3 130 12 162 23 74 25 142 81 178 145 29 51 31 62 31 150 0
85 -3 100 -27 141 -53 91 -136 138 -345 199 -244 71 -298 113 -291 225 4 73
29 113 93 150 124 73 327 45 445 -61 l42 -38 29 32 c16 18 29 36 29 42 0 17
-75 81 -126 106 -29 14 -76 32 -105 39 -66 18 -230 18 -284 1z"/>
<path d="M7 6793 c-4 -3 -7 -26 -7 -50 l0 -43 185 0 185 0 0 -520 0 -520 55 0
55 0 0 520 0 520 186 0 185 0 -3 48 -3 47 -416 3 c-228 1 -418 -1 -422 -5z"/>
<path d="M1127 6793 c-4 -3 -7 -260 -7 -570 l0 -563 365 0 365 0 0 45 0 45
-310 0 -310 0 0 220 0 220 305 0 305 0 0 50 0 50 -305 0 -305 0 0 205 0 205
311 0 310 0 -3 48 -3 47 -356 3 c-195 1 -358 -1 -362 -5z"/>
<path d="M3390 6230 l0 -570 50 0 50 0 0 265 0 265 355 0 355 0 0 -265 0 -265
55 0 55 0 -2 568 -3 567 -50 0 -50 0 -3 -252 -2 -253 -355 0 -355 0 0 255 0
255 -50 0 -50 0 0 -570z"/>
<path d="M4667 6793 c-4 -3 -7 -260 -7 -570 l0 -563 55 0 55 0 2 478 3 479
349 -479 349 -478 53 0 54 0 -2 568 -3 567 -50 0 -50 0 -5 -473 -5 -473 -350
476 -349 475 -46 0 c-26 0 -50 -3 -53 -7z"/>
<path d="M7317 6794 c-4 -4 -7 -261 -7 -571 l0 -563 330 0 330 0 0 45 0 45
-275 0 -275 0 -2 523 -3 522 -45 3 c-25 2 -49 0 -53 -4z"/>
<path d="M10743 6786 c3 -8 103 -154 221 -324 l216 -311 0 -245 0 -246 55 0
55 0 0 240 0 239 224 323 c123 178 222 326 219 331 -2 4 -28 7 -58 7 l-54 0
-188 -275 c-103 -151 -191 -275 -194 -275 -3 0 -90 124 -194 275 l-188 275
-60 0 c-47 0 -58 -3 -54 -14z"/>
<path d="M12510 6230 l0 -570 280 0 c261 0 283 1 336 21 119 45 185 144 186
280 1 113 -68 226 -164 269 -39 17 -39 18 -13 24 36 9 102 72 127 120 29 56
36 169 15 231 -34 98 -116 163 -231 184 -33 6 -167 11 -298 11 l-238 0 0 -570z
m525 459 c97 -27 150 -106 143 -214 -5 -80 -35 -126 -102 -160 -48 -24 -56
-25 -258 -25 l-208 0 0 205 0 205 193 0 c107 0 210 -5 232 -11z m54 -525 c34
-17 62 -41 79 -67 24 -36 27 -50 27 -127 0 -77 -3 -91 -27 -127 -17 -26 -45
-49 -75 -64 -45 -23 -61 -24 -265 -27 l-218 -4 0 221 0 221 213 0 c210 0 214
0 266 -26z"/>
<path d="M13983 6788 c-7 -9 -399 -960 -460 -1115 -4 -10 11 -13 54 -13 l59 0
54 135 55 135 300 0 301 0 54 -135 55 -135 58 0 c43 0 58 3 54 13 -46 120
-453 1106 -460 1115 -5 7 -32 12 -62 12 -30 0 -57 -5 -62 -12z m201 -448 l124
-305 -128 -3 c-71 -1 -189 -1 -263 0 l-134 3 130 324 c100 248 133 320 139
305 5 -10 64 -156 132 -324z"/>
<path d="M14817 6794 c-4 -4 -7 -261 -7 -571 l0 -563 330 0 330 0 0 45 0 45
-275 0 -275 0 -2 523 -3 522 -45 3 c-25 2 -49 0 -53 -4z"/>
<path d="M15507 6793 c-4 -3 -7 -26 -7 -50 l0 -43 185 0 185 0 0 -520 0 -520
55 0 55 0 0 520 0 520 186 0 185 0 -3 48 -3 47 -416 3 c-228 1 -418 -1 -422
-5z"/>
<path d="M16627 6794 c-4 -4 -7 -261 -7 -571 l0 -563 55 0 55 0 -2 568 -3 567
-45 3 c-25 2 -49 0 -53 -4z"/>
</g>
</svg>
